/* XPM */
static char * universalIndentGUI_32x32_xpm[] = {
"32 32 85 1",
" 	c None",
".	c #DFDFDF",
"+	c #EEEEEE",
"@	c #DEDEDE",
"#	c #F0F0F0",
"$	c #FFFFFF",
"%	c #EFEFEF",
"&	c #7878E4",
"*	c #6565EE",
"=	c #9191E7",
"-	c #6C6CF0",
";	c #5555FF",
">	c #8888F0",
",	c #E9F1E9",
"'	c #DEEBDE",
")	c #F8FAF8",
"!	c #55D655",
"~	c #00D400",
"{	c #ADEAAD",
"]	c #8080E5",
"^	c #6F6FEE",
"/	c #9898E8",
"(	c #69DF69",
"_	c #24D324",
":	c #FEFEFE",
"<	c #AEEAAE",
"[	c #32D632",
"}	c #FDFEFD",
"|	c #84E084",
"1	c #CFF7CF",
"2	c #33DD33",
"3	c #75DE75",
"4	c #03D503",
"5	c #ABE8AB",
"6	c #C3F5C3",
"7	c #05D205",
"8	c #96E796",
"9	c #51D851",
"0	c #DDF4DD",
"a	c #C8F2C8",
"b	c #20CB20",
"c	c #65D165",
"d	c #0AD30A",
"e	c #68DD68",
"f	c #D9F3D9",
"g	c #03D303",
"h	c #4DD94D",
"i	c #B5EBB5",
"j	c #FCFDFC",
"k	c #22D322",
"l	c #83E283",
"m	c #EAF6EA",
"n	c #01D301",
"o	c #44D844",
"p	c #B6ECB6",
"q	c #2ED52E",
"r	c #BEEBBE",
"s	c #D3F8D3",
"t	c #44DF44",
"u	c #80E180",
"v	c #67DC67",
"w	c #F9FCF9",
"x	c #82DF82",
"y	c #5CDB5C",
"z	c #C4F2C4",
"A	c #10C910",
"B	c #5BCF5B",
"C	c #1AD31A",
"D	c #F3FAF3",
"E	c #91E691",
"F	c #15D215",
"G	c #F6FBF6",
"H	c #58DC58",
"I	c #9DE89D",
"J	c #9C9CF5",
"K	c #8E8EFF",
"L	c #AFAFF5",
"M	c #D0F4D0",
"N	c #BBF4BB",
"O	c #EFFAEF",
"P	c #6E6EE3",
"Q	c #5A5AEE",
"R	c #8989E5",
"S	c #EDEDED",
"T	c #DCDCDC",
".++++++++++++++++++++++++++++++@",
"#$$$$$$$$$$$$$$$$$$$$$$$$$$$$$$%",
"#$$$$$$$$$$$$&**************=$$%",
"#$$$$$$$$$$$$-;;;;;;;;;;;;;;>$$%",
"#$$$,')$$$$$$-;;;;;;;;;;;;;;>$$%",
"#$$$!~{$$$$$$]^^^^^^^^^^^^^^/$$%",
"#$$$!~($$$$$$$$$$$$$$$$$$$$$$$$%",
"#$$$!~_:$$$$$$$$$$$$$$$$$$$$$$$%",
"#$$$!~~<$$$$$$$$$$$$$$$$$$$$$$$%",
"#$$$!~~[}$$$$$$$$$$$$$$$$$$$$$$%",
"#$$$!~~~|$$$$$$$$$12222222223$$%",
"#$$$!~~~45$$$$$$$$6~~~~~~~~~!$$%",
"#$$$!~~~~78$$$$$$$6~~~~~~~~~!$$%",
"#$$$!~~~~~~90$$$$$abbbbbbbbbc$$%",
"#$$$!~~~~~~~def$$$$$$$$$$$$$$$$%",
"#$$$!~~~~~~~~~ghij$$$$$$$$$$$$$%",
"#$$$!~~~~~~~~~~klm$$$$$$$$$$$$$%",
"#$$$!~~~~~~~nopj$$$$$$$$$$$$$$$%",
"#$$$!~~~~~~qr$$$$$stttttttttu$$%",
"#$$$!~~~~~vw$$$$$$6~~~~~~~~~!$$%",
"#$$$!~~~~x$$$$$$$$6~~~~~~~~~!$$%",
"#$$$!~~~y$$$$$$$$$zAAAAAAAAAB$$%",
"#$$$!~~CD$$$$$$$$$$$$$$$$$$$$$$%",
"#$$$!~~E$$$$$$$$$$$$$$$$$$$$$$$%",
"#$$$!~FG$$$$$$$$$$$$$$$$$$$$$$$%",
"#$$$!~H$$$$$$$$$$$$$$$$$$$$$$$$%",
"#$$$!~I$$$$$$JKKKKKKKKKKKKKKL$$%",
"#$$$MNO$$$$$$-;;;;;;;;;;;;;;>$$%",
"#$$$$$$$$$$$$-;;;;;;;;;;;;;;>$$%",
"#$$$$$$$$$$$$PQQQQQQQQQQQQQQR$$%",
"#$$$$$$$$$$$$$$$$$$$$$$$$$$$$$$%",
"@SSSSSSSSSSSSSSSSSSSSSSSSSSSSSST"};
